<?xml version="1.0" standalone="no"?><svg xmlns="http://www.w3.org/2000/svg" viewBox="0 0 1440 320"><path fill="#FBF91E" fill-opacity="1" d="M0,96L34.3,122.7C68.6,149,137,203,206,229.3C274.3,256,343,256,411,224C480,192,549,128,617,112C685.7,96,754,128,823,133.3C891.4,139,960,117,1029,128C1097.1,139,1166,181,1234,192C1302.9,203,1371,181,1406,170.7L1440,160L1440,320L1405.7,320C1371.4,320,1303,320,1234,320C1165.7,320,1097,320,1029,320C960,320,891,320,823,320C754.3,320,686,320,617,320C548.6,320,480,320,411,320C342.9,320,274,320,206,320C137.1,320,69,320,34,320L0,320Z"></path></svg>